<?xml version="1.0" encoding="utf-8"?>
<!-- Generator: Adobe Illustrator 26.0.1, SVG Export Plug-In . SVG Version: 6.00 Build 0)  -->
<svg version="1.1" id="circle_of_friends__x5F__orange"
	 xmlns="http://www.w3.org/2000/svg" xmlns:xlink="http://www.w3.org/1999/xlink" x="0px" y="0px" viewBox="0 0 425.2 425.2"
	 style="enable-background:new 0 0 425.2 425.2;" xml:space="preserve">
<style type="text/css">
	.st0{display:none;}
	.st1{display:inline;fill:#E95420;}
	.st2{display:inline;fill:#FFFFFF;}
	.st3{display:inline;fill-rule:evenodd;clip-rule:evenodd;fill:#EE0000;}
	.st4{display:inline;fill-rule:evenodd;clip-rule:evenodd;}
	.st5{fill:#333333;}
	.st6{fill:#EEEEEE;}
	.st7{fill:#FFCC22;stroke:#333333;stroke-width:2;stroke-miterlimit:8;}
</style>
<g class="st0">
	<path class="st1" d="M354.3,212.6c0,78.3-63.5,141.7-141.7,141.7S70.9,290.9,70.9,212.6c0-78.3,63.5-141.7,141.7-141.7
		C290.9,70.9,354.3,134.3,354.3,212.6z"/>
	<path class="st2" d="M139,212.6c0,10.1-8.2,18.2-18.2,18.2c-10.1,0-18.2-8.2-18.2-18.2c0-10.1,8.2-18.2,18.2-18.2
		C130.9,194.4,139,202.5,139,212.6z M242.7,301.2c5,8.7,16.2,11.7,24.9,6.7c8.7-5,11.7-16.2,6.7-24.9c-5-8.7-16.2-11.7-24.9-6.7
		C240.7,281.3,237.7,292.5,242.7,301.2z M274.3,142.2c5-8.7,2.1-19.9-6.7-24.9c-8.7-5-19.9-2-24.9,6.7c-5,8.7-2,19.9,6.7,24.9
		C258.1,153.9,269.2,150.9,274.3,142.2z M212.6,160.6c27.2,0,49.4,20.8,51.8,47.4l26.4-0.4c-1.3-19.7-9.8-37.5-23-50.6
		c-7,2.7-15.1,2.3-22.1-1.7c-7-4-11.4-10.9-12.5-18.3c-6.6-1.8-13.4-2.7-20.6-2.7c-12.5,0-24.3,2.9-34.7,8.1l12.8,23
		C197.4,162.4,204.8,160.6,212.6,160.6z M160.6,212.6c0-17.6,8.7-33.1,22.1-42.5l-13.5-22.6c-15.7,10.5-27.4,26.5-32.3,45.2
		c5.8,4.7,9.6,11.9,9.6,20c0,8.1-3.7,15.3-9.6,20c4.9,18.7,16.6,34.7,32.3,45.2l13.5-22.6C169.4,245.7,160.6,230.2,160.6,212.6z
		 M212.6,264.6c-7.8,0-15.2-1.7-21.9-4.8l-12.8,23c10.5,5.2,22.3,8.1,34.7,8.1c7.1,0,14-0.9,20.6-2.7c1.2-7.4,5.5-14.2,12.5-18.3
		c7-4,15.1-4.4,22.1-1.7c13.2-13.1,21.7-30.8,23-50.6l-26.4-0.4C262,243.7,239.8,264.6,212.6,264.6z"/>
</g>
<g transform="translate(0 3)" class="st0">
	<path class="st3" d="M130.7,122.3c9.1-34,21.7-47.7,37.7-40.9c24,10.2,34.2,6.8,44.5,0c6.8-4.5,17.1-4.5,30.8,0l47.9,20.4
		c13.7,4.5,22.8,20.4,27.4,47.7s8,45.4,10.3,54.5c34.2,13.6,53.6,34,58.2,61.3c6.8,40.9-47.9,81.7-160.9,61.3S41.7,241.4,48.6,204
		c4.6-25,26.2-37.5,65-37.5L130.7,122.3z"/>
	<path class="st4" d="M117.3,156.4C138,191.9,176,214.1,231.2,223c55.2,8.9,87.4,0,96.6-26.6c3.9,20.1,3.9,33.4,0,39.9
		c-13,21.6-48.3,27.9-86.3,23.3c-55.2-6.7-95.5-24.4-120.8-53.3c-6.9-8.9-10.4-16.6-10.4-23.3C110.4,176.4,112.7,167.5,117.3,156.4z
		"/>
</g>
<g transform="matrix(2 0 0 2 256 256)">
	<path class="st5" d="M-53.7-33.2c-2.5,5.9-20.2,24.4-18.5,42.9c6.7,77.3,30.3,25.2,65.5,44.5c0,0,63-35.3,12.6-92.4
		C-8.3-58.5,4.3-74.4-4.9-87.9s-25.2-14.3-37-1.7S-36.9-58.5-53.7-33.2"/>
	<path class="st6" d="M8.5,5.4c0,0,7.6-15.1-6.7-26.1c13.4,14.3,5,26.9,5,26.9H4.3C3.5-23.2-4.1-7.2-15-59.3
		c12.6-14.3-11.8-26.9-11.8-3.4h-7.6c0.8-20.2-16.8-10.1-6.7,4.2c-0.8,31.1-19.3,43.7-19.3,65.5c-5.9-15.1,5-26.9,5-26.9
		s-15.1,12.6-5.9,31.1S-35.2,25.6-46.9,34c18.5,12.6,47.1,4.2,46.2-22.7c0.8-6.7,18.5-4.2,20.2-2.5C21.1,10.5,16.9,5.4,8.5,5.4
		 M-38.5-60.1c-5.9-1.7-4.2-9.2-1.7-9.2C-37.7-69.4-33.5-63.5-38.5-60.1 M-22.6-59.3c-4.2-5.9-0.8-11.8,3.4-10.9S-15-59.3-22.6-59.3
		"/>
	<g>
		<path class="st7" d="M-61.2,13.8L-43.6,39c9.2,5.9,4.2,29.4-21,17.6c-14.3-4.2-26.1-3.4-27.7-10.9s3.4-8.4,2.5-11.8
			c-3.4-18.5,11.8-9.2,16-18.5C-69.6,6.3-69.6,2-61.2,13.8 M32.9,25.6c-3.4-5,0-14.3-11.8-13.4c-5,10.1-19.3,20.2-20.2,0
			c-8.4,0-2.5,20.2-5.9,29.4C-12.5,64.2,9.4,65.9,18.6,55l21.8-15.1C42.1,37.3,44.7,34.8,32.9,25.6 M-44.4-51.7
			c-2.5-5,9.2-11.8,13.4-11.8s10.1,3.4,16,5c5.9,1.7,3.4,7.6,1.7,8.4s-10.9,8.4-17.6,8.4S-39.4-48.4-44.4-51.7"/>
		<path class="st7" d="M-44.4-52.6c6.7,5,14.3,9.2,29.4-2.5"/>
	</g>
	<path class="st5" d="M-35.2-57.6c-1.7,0,0.8-1.7,1.7-0.8 M-27.6-57.6c0.8-0.8-0.8-1.7-2.5-0.8"/>
</g>
</svg>
