<?xml version="1.0" encoding="utf-8"?>
<!-- Generator: Adobe Illustrator 26.0.1, SVG Export Plug-In . SVG Version: 6.00 Build 0)  -->
<svg version="1.1" id="circle_of_friends__x5F__orange"
	 xmlns="http://www.w3.org/2000/svg" xmlns:xlink="http://www.w3.org/1999/xlink" x="0px" y="0px" viewBox="0 0 425.2 425.2"
	 style="enable-background:new 0 0 425.2 425.2;" xml:space="preserve">
<style type="text/css">
	.st0{display:none;}
	.st1{display:inline;fill:#E95420;}
	.st2{display:inline;fill:#FFFFFF;}
	.st3{fill-rule:evenodd;clip-rule:evenodd;fill:#EE0000;}
	.st4{fill-rule:evenodd;clip-rule:evenodd;}
</style>
<g class="st0">
	<path class="st1" d="M354.3,212.6c0,78.3-63.5,141.7-141.7,141.7S70.9,290.9,70.9,212.6c0-78.3,63.5-141.7,141.7-141.7
		C290.9,70.9,354.3,134.3,354.3,212.6z"/>
	<path class="st2" d="M139,212.6c0,10.1-8.2,18.2-18.2,18.2c-10.1,0-18.2-8.2-18.2-18.2c0-10.1,8.2-18.2,18.2-18.2
		C130.9,194.4,139,202.5,139,212.6z M242.7,301.2c5,8.7,16.2,11.7,24.9,6.7c8.7-5,11.7-16.2,6.7-24.9c-5-8.7-16.2-11.7-24.9-6.7
		C240.7,281.3,237.7,292.5,242.7,301.2z M274.3,142.2c5-8.7,2.1-19.9-6.7-24.9c-8.7-5-19.9-2-24.9,6.7c-5,8.7-2,19.9,6.7,24.9
		C258.1,153.9,269.2,150.9,274.3,142.2z M212.6,160.6c27.2,0,49.4,20.8,51.8,47.4l26.4-0.4c-1.3-19.7-9.8-37.5-23-50.6
		c-7,2.7-15.1,2.3-22.1-1.7c-7-4-11.4-10.9-12.5-18.3c-6.6-1.8-13.4-2.7-20.6-2.7c-12.5,0-24.3,2.9-34.7,8.1l12.8,23
		C197.4,162.4,204.8,160.6,212.6,160.6z M160.6,212.6c0-17.6,8.7-33.1,22.1-42.5l-13.5-22.6c-15.7,10.5-27.4,26.5-32.3,45.2
		c5.8,4.7,9.6,11.9,9.6,20c0,8.1-3.7,15.3-9.6,20c4.9,18.7,16.6,34.7,32.3,45.2l13.5-22.6C169.4,245.7,160.6,230.2,160.6,212.6z
		 M212.6,264.6c-7.8,0-15.2-1.7-21.9-4.8l-12.8,23c10.5,5.2,22.3,8.1,34.7,8.1c7.1,0,14-0.9,20.6-2.7c1.2-7.4,5.5-14.2,12.5-18.3
		c7-4,15.1-4.4,22.1-1.7c13.2-13.1,21.7-30.8,23-50.6l-26.4-0.4C262,243.7,239.8,264.6,212.6,264.6z"/>
</g>
<g transform="translate(0 3)">
	<path class="st3" d="M130.7,122.3c9.1-34,21.7-47.7,37.7-40.9c24,10.2,34.2,6.8,44.5,0c6.8-4.5,17.1-4.5,30.8,0l47.9,20.4
		c13.7,4.5,22.8,20.4,27.4,47.7s8,45.4,10.3,54.5c34.2,13.6,53.6,34,58.2,61.3c6.8,40.9-47.9,81.7-160.9,61.3S41.7,241.4,48.6,204
		c4.6-25,26.2-37.5,65-37.5L130.7,122.3z"/>
	<path class="st4" d="M117.3,156.4C138,191.9,176,214.1,231.2,223c55.2,8.9,87.4,0,96.6-26.6c3.9,20.1,3.9,33.4,0,39.9
		c-13,21.6-48.3,27.9-86.3,23.3c-55.2-6.7-95.5-24.4-120.8-53.3c-6.9-8.9-10.4-16.6-10.4-23.3C110.4,176.4,112.7,167.5,117.3,156.4z
		"/>
</g>
</svg>
