<?xml version="1.0" encoding="utf-8"?>
<!-- Generator: Adobe Illustrator 26.0.1, SVG Export Plug-In . SVG Version: 6.00 Build 0)  -->
<svg version="1.1" id="图层_1" xmlns="http://www.w3.org/2000/svg" xmlns:xlink="http://www.w3.org/1999/xlink" x="0px" y="0px"
	 viewBox="0 0 490.4 490.4" style="enable-background:new 0 0 490.4 490.4;" xml:space="preserve">
<style type="text/css">
	.st0{fill:#00ADEF;}
</style>
<path class="st0" d="M233.9,140.7c49.1-7.5,98.4-14.6,147.6-21.4c0,43.2,0,86.3,0,129.4c-49.2,0.2-98.4,0.9-147.6,1.1
	C233.9,213.4,233.9,177,233.9,140.7z"/>
<path class="st0" d="M109.1,158.1c37-5.7,74.2-10.6,111.3-15.3c0,35.8,0,71.5,0.1,107.3c-37.1,0-74.3,0.5-111.4,0.4V158.1z"/>
<path class="st0" d="M109.1,261.8c37.1-0.1,74.2,0.5,111.3,0.4c0,35.9,0.1,71.8,0,107.6c-37.1-5.5-74.2-10.3-111.3-15.3V261.8z"/>
<path class="st0" d="M233.7,263.3h147.8c0.1,43,0,86.1,0,129.1c-49.1-7.4-98.4-14.2-147.6-20.9C233.8,335.4,233.8,299.4,233.7,263.3
	z"/>
</svg>
